<svg id="visual" viewBox="0 0 900 300" width="900" height="300" xmlns="http://www.w3.org/2000/svg"
    xmlns:xlink="http://www.w3.org/1999/xlink" version="1.1">
    <rect x="0" y="0" width="900" height="300" fill="rgba(23,18,37,0)"></rect>
    <path
        d="M0 134L10 138.2C20 142.3 40 150.7 60 136.8C80 123 100 87 120 86C140 85 160 119 180 131.8C200 144.7 220 136.3 240 127.5C260 118.7 280 109.3 300 108C320 106.7 340 113.3 360 112.3C380 111.3 400 102.7 420 90.3C440 78 460 62 480 67C500 72 520 98 540 104.7C560 111.3 580 98.7 600 106.2C620 113.7 640 141.3 660 137.7C680 134 700 99 720 87.5C740 76 760 88 780 105.7C800 123.3 820 146.7 840 139C860 131.3 880 92.7 890 73.3L900 54L900 301L890 301C880 301 860 301 840 301C820 301 800 301 780 301C760 301 740 301 720 301C700 301 680 301 660 301C640 301 620 301 600 301C580 301 560 301 540 301C520 301 500 301 480 301C460 301 440 301 420 301C400 301 380 301 360 301C340 301 320 301 300 301C280 301 260 301 240 301C220 301 200 301 180 301C160 301 140 301 120 301C100 301 80 301 60 301C40 301 20 301 10 301L0 301Z"
        fill="#362168"></path>
    <path
        d="M0 185L10 183.7C20 182.3 40 179.7 60 175.3C80 171 100 165 120 149.8C140 134.7 160 110.3 180 110.3C200 110.3 220 134.7 240 149.7C260 164.7 280 170.3 300 169.2C320 168 340 160 360 154.3C380 148.7 400 145.3 420 149C440 152.7 460 163.3 480 166.7C500 170 520 166 540 152.8C560 139.7 580 117.3 600 114.3C620 111.3 640 127.7 660 139.2C680 150.7 700 157.3 720 155C740 152.7 760 141.3 780 137.8C800 134.3 820 138.7 840 127.3C860 116 880 89 890 75.5L900 62L900 301L890 301C880 301 860 301 840 301C820 301 800 301 780 301C760 301 740 301 720 301C700 301 680 301 660 301C640 301 620 301 600 301C580 301 560 301 540 301C520 301 500 301 480 301C460 301 440 301 420 301C400 301 380 301 360 301C340 301 320 301 300 301C280 301 260 301 240 301C220 301 200 301 180 301C160 301 140 301 120 301C100 301 80 301 60 301C40 301 20 301 10 301L0 301Z"
        fill="#2e1e5c"></path>
    <path
        d="M0 185L10 175.3C20 165.7 40 146.3 60 149.5C80 152.7 100 178.3 120 177C140 175.7 160 147.3 180 145.5C200 143.7 220 168.3 240 180.7C260 193 280 193 300 191.2C320 189.3 340 185.7 360 183C380 180.3 400 178.7 420 170.2C440 161.7 460 146.3 480 133.3C500 120.3 520 109.7 540 109C560 108.3 580 117.7 600 122.8C620 128 640 129 660 141C680 153 700 176 720 171.2C740 166.3 760 133.7 780 121.7C800 109.7 820 118.3 840 121C860 123.7 880 120.3 890 118.7L900 117L900 301L890 301C880 301 860 301 840 301C820 301 800 301 780 301C760 301 740 301 720 301C700 301 680 301 660 301C640 301 620 301 600 301C580 301 560 301 540 301C520 301 500 301 480 301C460 301 440 301 420 301C400 301 380 301 360 301C340 301 320 301 300 301C280 301 260 301 240 301C220 301 200 301 180 301C160 301 140 301 120 301C100 301 80 301 60 301C40 301 20 301 10 301L0 301Z"
        fill="#271c4f"></path>
    <path
        d="M0 217L10 216C20 215 40 213 60 197.2C80 181.3 100 151.7 120 149.8C140 148 160 174 180 176.8C200 179.7 220 159.3 240 158C260 156.7 280 174.3 300 181.7C320 189 340 186 360 177.2C380 168.3 400 153.7 420 157C440 160.3 460 181.7 480 192.7C500 203.7 520 204.3 540 202.2C560 200 580 195 600 183.8C620 172.7 640 155.3 660 160C680 164.7 700 191.3 720 199.3C740 207.3 760 196.7 780 190C800 183.3 820 180.7 840 185.5C860 190.3 880 202.7 890 208.8L900 215L900 301L890 301C880 301 860 301 840 301C820 301 800 301 780 301C760 301 740 301 720 301C700 301 680 301 660 301C640 301 620 301 600 301C580 301 560 301 540 301C520 301 500 301 480 301C460 301 440 301 420 301C400 301 380 301 360 301C340 301 320 301 300 301C280 301 260 301 240 301C220 301 200 301 180 301C160 301 140 301 120 301C100 301 80 301 60 301C40 301 20 301 10 301L0 301Z"
        fill="#211943"></path>
    <path
        d="M0 208L10 205.8C20 203.7 40 199.3 60 192C80 184.7 100 174.3 120 180C140 185.7 160 207.3 180 209.7C200 212 220 195 240 188.5C260 182 280 186 300 195.3C320 204.7 340 219.3 360 224.5C380 229.7 400 225.3 420 218.5C440 211.7 460 202.3 480 195.5C500 188.7 520 184.3 540 186.8C560 189.3 580 198.7 600 204.8C620 211 640 214 660 207.5C680 201 700 185 720 183.5C740 182 760 195 780 195.3C800 195.7 820 183.3 840 185.7C860 188 880 205 890 213.5L900 222L900 301L890 301C880 301 860 301 840 301C820 301 800 301 780 301C760 301 740 301 720 301C700 301 680 301 660 301C640 301 620 301 600 301C580 301 560 301 540 301C520 301 500 301 480 301C460 301 440 301 420 301C400 301 380 301 360 301C340 301 320 301 300 301C280 301 260 301 240 301C220 301 200 301 180 301C160 301 140 301 120 301C100 301 80 301 60 301C40 301 20 301 10 301L0 301Z"
        fill="#1b1537"></path>
    <path
        d="M0 189L10 198.3C20 207.7 40 226.3 60 227.8C80 229.3 100 213.7 120 210.7C140 207.7 160 217.3 180 220C200 222.7 220 218.3 240 220.3C260 222.3 280 230.7 300 227.5C320 224.3 340 209.7 360 202.8C380 196 400 197 420 204.5C440 212 460 226 480 227C500 228 520 216 540 215.3C560 214.7 580 225.3 600 222.2C620 219 640 202 660 203C680 204 700 223 720 231.3C740 239.7 760 237.3 780 236.3C800 235.3 820 235.7 840 233.7C860 231.7 880 227.3 890 225.2L900 223L900 301L890 301C880 301 860 301 840 301C820 301 800 301 780 301C760 301 740 301 720 301C700 301 680 301 660 301C640 301 620 301 600 301C580 301 560 301 540 301C520 301 500 301 480 301C460 301 440 301 420 301C400 301 380 301 360 301C340 301 320 301 300 301C280 301 260 301 240 301C220 301 200 301 180 301C160 301 140 301 120 301C100 301 80 301 60 301C40 301 20 301 10 301L0 301Z"
        fill="#16122b"></path>
    <path
        d="M0 233L10 231C20 229 40 225 60 223.3C80 221.7 100 222.3 120 227C140 231.7 160 240.3 180 238.7C200 237 220 225 240 227C260 229 280 245 300 248.2C320 251.3 340 241.7 360 240C380 238.3 400 244.7 420 243.2C440 241.7 460 232.3 480 233.3C500 234.3 520 245.7 540 251.2C560 256.7 580 256.3 600 255.8C620 255.3 640 254.7 660 247.7C680 240.7 700 227.3 720 227.3C740 227.3 760 240.7 780 241.7C800 242.7 820 231.3 840 227.2C860 223 880 226 890 227.5L900 229L900 301L890 301C880 301 860 301 840 301C820 301 800 301 780 301C760 301 740 301 720 301C700 301 680 301 660 301C640 301 620 301 600 301C580 301 560 301 540 301C520 301 500 301 480 301C460 301 440 301 420 301C400 301 380 301 360 301C340 301 320 301 300 301C280 301 260 301 240 301C220 301 200 301 180 301C160 301 140 301 120 301C100 301 80 301 60 301C40 301 20 301 10 301L0 301Z"
        fill="#120c20"></path>
    <path
        d="M0 286L10 278.7C20 271.3 40 256.7 60 251.8C80 247 100 252 120 252.3C140 252.7 160 248.3 180 248.8C200 249.3 220 254.7 240 261.7C260 268.7 280 277.3 300 274.7C320 272 340 258 360 251.3C380 244.7 400 245.3 420 247.3C440 249.3 460 252.7 480 252.3C500 252 520 248 540 253C560 258 580 272 600 279.2C620 286.3 640 286.7 660 280.8C680 275 700 263 720 257.7C740 252.3 760 253.7 780 257.5C800 261.3 820 267.7 840 272.3C860 277 880 280 890 281.5L900 283L900 301L890 301C880 301 860 301 840 301C820 301 800 301 780 301C760 301 740 301 720 301C700 301 680 301 660 301C640 301 620 301 600 301C580 301 560 301 540 301C520 301 500 301 480 301C460 301 440 301 420 301C400 301 380 301 360 301C340 301 320 301 300 301C280 301 260 301 240 301C220 301 200 301 180 301C160 301 140 301 120 301C100 301 80 301 60 301C40 301 20 301 10 301L0 301Z"
        fill="#090415"></path>
</svg>