<svg id="visual" viewBox="0 0 900 1200" width="900" height="1200" xmlns="http://www.w3.org/2000/svg"
    xmlns:xlink="http://www.w3.org/1999/xlink" version="1.1">
    <path
        d="M0 73L39 49L78 97L117 49L157 37L196 73L235 61L274 73L313 85L352 49L391 73L430 85L470 37L509 97L548 61L587 49L626 85L665 97L704 61L743 37L783 73L822 49L861 37L900 73L900 0L861 0L822 0L783 0L743 0L704 0L665 0L626 0L587 0L548 0L509 0L470 0L430 0L391 0L352 0L313 0L274 0L235 0L196 0L157 0L117 0L78 0L39 0L0 0Z"
        fill="#1a1428"></path>
    <path
        d="M0 301L39 241L78 385L117 337L157 169L196 313L235 277L274 265L313 205L352 349L391 253L430 253L470 277L509 337L548 325L587 217L626 265L665 301L704 313L743 193L783 337L822 157L861 229L900 373L900 71L861 35L822 47L783 71L743 35L704 59L665 95L626 83L587 47L548 59L509 95L470 35L430 83L391 71L352 47L313 83L274 71L235 59L196 71L157 35L117 47L78 95L39 47L0 71Z"
        fill="#1d162d"></path>
    <path
        d="M0 385L39 361L78 517L117 421L157 241L196 373L235 337L274 373L313 313L352 457L391 337L430 301L470 349L509 421L548 421L587 265L626 361L665 409L704 385L743 289L783 457L822 289L861 337L900 493L900 371L861 227L822 155L783 335L743 191L704 311L665 299L626 263L587 215L548 323L509 335L470 275L430 251L391 251L352 347L313 203L274 263L235 275L196 311L157 167L117 335L78 383L39 239L0 299Z"
        fill="#201933"></path>
    <path
        d="M0 445L39 433L78 553L117 493L157 301L196 433L235 385L274 421L313 373L352 505L391 373L430 373L470 409L509 481L548 469L587 337L626 421L665 469L704 445L743 361L783 505L822 337L861 409L900 529L900 491L861 335L822 287L783 455L743 287L704 383L665 407L626 359L587 263L548 419L509 419L470 347L430 299L391 335L352 455L313 311L274 371L235 335L196 371L157 239L117 419L78 515L39 359L0 383Z"
        fill="#241b39"></path>
    <path
        d="M0 505L39 481L78 601L117 541L157 361L196 493L235 457L274 493L313 421L352 541L391 409L430 445L470 445L509 529L548 529L587 385L626 457L665 505L704 505L743 433L783 553L822 409L861 469L900 577L900 527L861 407L822 335L783 503L743 359L704 443L665 467L626 419L587 335L548 467L509 479L470 407L430 371L391 371L352 503L313 371L274 419L235 383L196 431L157 299L117 491L78 551L39 431L0 443Z"
        fill="#281e3f"></path>
    <path
        d="M0 553L39 517L78 649L117 577L157 397L196 529L235 517L274 529L313 457L352 565L391 445L430 493L470 505L509 553L548 577L587 421L626 481L665 553L704 541L743 493L783 601L822 469L861 493L900 625L900 575L861 467L822 407L783 551L743 431L704 503L665 503L626 455L587 383L548 527L509 527L470 443L430 443L391 407L352 539L313 419L274 491L235 455L196 491L157 359L117 539L78 599L39 479L0 503Z"
        fill="#291f41"></path>
    <path
        d="M0 649L39 649L78 841L117 709L157 589L196 613L235 673L274 625L313 589L352 733L391 553L430 589L470 709L509 733L548 745L587 529L626 613L665 649L704 685L743 673L783 793L822 637L861 649L900 793L900 623L861 491L822 467L783 599L743 491L704 539L665 551L626 479L587 419L548 575L509 551L470 503L430 491L391 443L352 563L313 455L274 527L235 515L196 527L157 395L117 575L78 647L39 515L0 551Z"
        fill="#291f41"></path>
    <path
        d="M0 709L39 709L78 889L117 769L157 673L196 685L235 709L274 685L313 673L352 805L391 637L430 625L470 769L509 793L548 781L587 613L626 673L665 697L704 757L743 757L783 841L822 697L861 733L900 829L900 791L861 647L822 635L783 791L743 671L704 683L665 647L626 611L587 527L548 743L509 731L470 707L430 587L391 551L352 731L313 587L274 623L235 671L196 611L157 587L117 707L78 839L39 647L0 647Z"
        fill="#281e3f"></path>
    <path
        d="M0 1021L39 973L78 1057L117 1009L157 949L196 985L235 985L274 985L313 985L352 1021L391 949L430 985L470 985L509 961L548 961L587 1009L626 949L665 937L704 973L743 997L783 997L822 973L861 925L900 1009L900 827L861 731L822 695L783 839L743 755L704 755L665 695L626 671L587 611L548 779L509 791L470 767L430 623L391 635L352 803L313 671L274 683L235 707L196 683L157 671L117 767L78 887L39 707L0 707Z"
        fill="#241b39"></path>
    <path
        d="M0 1105L39 1081L78 1105L117 1057L157 1045L196 1081L235 1081L274 1069L313 1081L352 1093L391 1009L430 1093L470 1033L509 1045L548 1045L587 1081L626 1045L665 1021L704 1021L743 1081L783 1057L822 1033L861 1033L900 1093L900 1007L861 923L822 971L783 995L743 995L704 971L665 935L626 947L587 1007L548 959L509 959L470 983L430 983L391 947L352 1019L313 983L274 983L235 983L196 983L157 947L117 1007L78 1055L39 971L0 1019Z"
        fill="#201933"></path>
    <path
        d="M0 1129L39 1117L78 1141L117 1081L157 1069L196 1129L235 1117L274 1129L313 1129L352 1129L391 1045L430 1117L470 1093L509 1081L548 1093L587 1129L626 1069L665 1069L704 1081L743 1105L783 1105L822 1057L861 1093L900 1129L900 1091L861 1031L822 1031L783 1055L743 1079L704 1019L665 1019L626 1043L587 1079L548 1043L509 1043L470 1031L430 1091L391 1007L352 1091L313 1079L274 1067L235 1079L196 1079L157 1043L117 1055L78 1103L39 1079L0 1103Z"
        fill="#1d162d"></path>
    <path
        d="M0 1201L39 1201L78 1201L117 1201L157 1201L196 1201L235 1201L274 1201L313 1201L352 1201L391 1201L430 1201L470 1201L509 1201L548 1201L587 1201L626 1201L665 1201L704 1201L743 1201L783 1201L822 1201L861 1201L900 1201L900 1127L861 1091L822 1055L783 1103L743 1103L704 1079L665 1067L626 1067L587 1127L548 1091L509 1079L470 1091L430 1115L391 1043L352 1127L313 1127L274 1127L235 1115L196 1127L157 1067L117 1079L78 1139L39 1115L0 1127Z"
        fill="#1a1428"></path>
</svg>