<svg id="visual" viewBox="0 0 900 900" width="900" height="900" xmlns="http://www.w3.org/2000/svg"
    xmlns:xlink="http://www.w3.org/1999/xlink" version="1.1">
    <path
        d="M0 55L39 37L78 73L117 37L157 28L196 55L235 46L274 55L313 64L352 37L391 55L430 64L470 28L509 73L548 46L587 37L626 64L665 73L704 46L743 28L783 55L822 37L861 28L900 55L900 0L861 0L822 0L783 0L743 0L704 0L665 0L626 0L587 0L548 0L509 0L470 0L430 0L391 0L352 0L313 0L274 0L235 0L196 0L157 0L117 0L78 0L39 0L0 0Z"
        fill="#1a1428"></path>
    <path
        d="M0 226L39 181L78 289L117 253L157 127L196 235L235 208L274 199L313 154L352 262L391 190L430 190L470 208L509 253L548 244L587 163L626 199L665 226L704 235L743 145L783 253L822 118L861 172L900 280L900 53L861 26L822 35L783 53L743 26L704 44L665 71L626 62L587 35L548 44L509 71L470 26L430 62L391 53L352 35L313 62L274 53L235 44L196 53L157 26L117 35L78 71L39 35L0 53Z"
        fill="#1d162d"></path>
    <path
        d="M0 289L39 271L78 388L117 316L157 181L196 280L235 253L274 280L313 235L352 343L391 253L430 226L470 262L509 316L548 316L587 199L626 271L665 307L704 289L743 217L783 343L822 217L861 253L900 370L900 278L861 170L822 116L783 251L743 143L704 233L665 224L626 197L587 161L548 242L509 251L470 206L430 188L391 188L352 260L313 152L274 197L235 206L196 233L157 125L117 251L78 287L39 179L0 224Z"
        fill="#201933"></path>
    <path
        d="M0 334L39 325L78 415L117 370L157 226L196 325L235 289L274 316L313 280L352 379L391 280L430 280L470 307L509 361L548 352L587 253L626 316L665 352L704 334L743 271L783 379L822 253L861 307L900 397L900 368L861 251L822 215L783 341L743 215L704 287L665 305L626 269L587 197L548 314L509 314L470 260L430 224L391 251L352 341L313 233L274 278L235 251L196 278L157 179L117 314L78 386L39 269L0 287Z"
        fill="#241b39"></path>
    <path
        d="M0 379L39 361L78 451L117 406L157 271L196 370L235 343L274 370L313 316L352 406L391 307L430 334L470 334L509 397L548 397L587 289L626 343L665 379L704 379L743 325L783 415L822 307L861 352L900 433L900 395L861 305L822 251L783 377L743 269L704 332L665 350L626 314L587 251L548 350L509 359L470 305L430 278L391 278L352 377L313 278L274 314L235 287L196 323L157 224L117 368L78 413L39 323L0 332Z"
        fill="#281e3f"></path>
    <path
        d="M0 415L39 388L78 487L117 433L157 298L196 397L235 388L274 397L313 343L352 424L391 334L430 370L470 379L509 415L548 433L587 316L626 361L665 415L704 406L743 370L783 451L822 352L861 370L900 469L900 431L861 350L822 305L783 413L743 323L704 377L665 377L626 341L587 287L548 395L509 395L470 332L430 332L391 305L352 404L313 314L274 368L235 341L196 368L157 269L117 404L78 449L39 359L0 377Z"
        fill="#291f41"></path>
    <path
        d="M0 487L39 487L78 631L117 532L157 442L196 460L235 505L274 469L313 442L352 550L391 415L430 442L470 532L509 550L548 559L587 397L626 460L665 487L704 514L743 505L783 595L822 478L861 487L900 595L900 467L861 368L822 350L783 449L743 368L704 404L665 413L626 359L587 314L548 431L509 413L470 377L430 368L391 332L352 422L313 341L274 395L235 386L196 395L157 296L117 431L78 485L39 386L0 413Z"
        fill="#291f41"></path>
    <path
        d="M0 532L39 532L78 667L117 577L157 505L196 514L235 532L274 514L313 505L352 604L391 478L430 469L470 577L509 595L548 586L587 460L626 505L665 523L704 568L743 568L783 631L822 523L861 550L900 622L900 593L861 485L822 476L783 593L743 503L704 512L665 485L626 458L587 395L548 557L509 548L470 530L430 440L391 413L352 548L313 440L274 467L235 503L196 458L157 440L117 530L78 629L39 485L0 485Z"
        fill="#281e3f"></path>
    <path
        d="M0 766L39 730L78 793L117 757L157 712L196 739L235 739L274 739L313 739L352 766L391 712L430 739L470 739L509 721L548 721L587 757L626 712L665 703L704 730L743 748L783 748L822 730L861 694L900 757L900 620L861 548L822 521L783 629L743 566L704 566L665 521L626 503L587 458L548 584L509 593L470 575L430 467L391 476L352 602L313 503L274 512L235 530L196 512L157 503L117 575L78 665L39 530L0 530Z"
        fill="#241b39"></path>
    <path
        d="M0 829L39 811L78 829L117 793L157 784L196 811L235 811L274 802L313 811L352 820L391 757L430 820L470 775L509 784L548 784L587 811L626 784L665 766L704 766L743 811L783 793L822 775L861 775L900 820L900 755L861 692L822 728L783 746L743 746L704 728L665 701L626 710L587 755L548 719L509 719L470 737L430 737L391 710L352 764L313 737L274 737L235 737L196 737L157 710L117 755L78 791L39 728L0 764Z"
        fill="#201933"></path>
    <path
        d="M0 847L39 838L78 856L117 811L157 802L196 847L235 838L274 847L313 847L352 847L391 784L430 838L470 820L509 811L548 820L587 847L626 802L665 802L704 811L743 829L783 829L822 793L861 820L900 847L900 818L861 773L822 773L783 791L743 809L704 764L665 764L626 782L587 809L548 782L509 782L470 773L430 818L391 755L352 818L313 809L274 800L235 809L196 809L157 782L117 791L78 827L39 809L0 827Z"
        fill="#1d162d"></path>
    <path
        d="M0 901L39 901L78 901L117 901L157 901L196 901L235 901L274 901L313 901L352 901L391 901L430 901L470 901L509 901L548 901L587 901L626 901L665 901L704 901L743 901L783 901L822 901L861 901L900 901L900 845L861 818L822 791L783 827L743 827L704 809L665 800L626 800L587 845L548 818L509 809L470 818L430 836L391 782L352 845L313 845L274 845L235 836L196 845L157 800L117 809L78 854L39 836L0 845Z"
        fill="#1a1428"></path>
</svg>