<svg id="visual" viewBox="0 0 900 850" width="900" height="850" xmlns="http://www.w3.org/2000/svg"
    xmlns:xlink="http://www.w3.org/1999/xlink" version="1.1">
    <path
        d="M0 52L39 35L78 69L117 35L157 27L196 52L235 44L274 52L313 61L352 35L391 52L430 61L470 27L509 69L548 44L587 35L626 61L665 69L704 44L743 27L783 52L822 35L861 27L900 52L900 0L861 0L822 0L783 0L743 0L704 0L665 0L626 0L587 0L548 0L509 0L470 0L430 0L391 0L352 0L313 0L274 0L235 0L196 0L157 0L117 0L78 0L39 0L0 0Z"
        fill="#1a1428"></path>
    <path
        d="M0 214L39 171L78 273L117 239L157 120L196 222L235 197L274 188L313 146L352 247L391 180L430 180L470 197L509 239L548 231L587 154L626 188L665 214L704 222L743 137L783 239L822 112L861 163L900 265L900 50L861 25L822 33L783 50L743 25L704 42L665 67L626 59L587 33L548 42L509 67L470 25L430 59L391 50L352 33L313 59L274 50L235 42L196 50L157 25L117 33L78 67L39 33L0 50Z"
        fill="#1d162d"></path>
    <path
        d="M0 273L39 256L78 367L117 299L157 171L196 265L235 239L274 265L313 222L352 324L391 239L430 214L470 247L509 299L548 299L587 188L626 256L665 290L704 273L743 205L783 324L822 205L861 239L900 350L900 263L861 161L822 110L783 237L743 135L704 220L665 212L626 186L587 152L548 229L509 237L470 195L430 178L391 178L352 245L313 144L274 186L235 195L196 220L157 118L117 237L78 271L39 169L0 212Z"
        fill="#201933"></path>
    <path
        d="M0 316L39 307L78 392L117 350L157 214L196 307L235 273L274 299L313 265L352 358L391 265L430 265L470 290L509 341L548 333L587 239L626 299L665 333L704 316L743 256L783 358L822 239L861 290L900 375L900 348L861 237L822 203L783 322L743 203L704 271L665 288L626 254L587 186L548 297L509 297L470 245L430 212L391 237L352 322L313 220L274 263L235 237L196 263L157 169L117 297L78 365L39 254L0 271Z"
        fill="#241b39"></path>
    <path
        d="M0 358L39 341L78 426L117 384L157 256L196 350L235 324L274 350L313 299L352 384L391 290L430 316L470 316L509 375L548 375L587 273L626 324L665 358L704 358L743 307L783 392L822 290L861 333L900 409L900 373L861 288L822 237L783 356L743 254L704 314L665 331L626 297L587 237L548 331L509 339L470 288L430 263L391 263L352 356L313 263L274 297L235 271L196 305L157 212L117 348L78 390L39 305L0 314Z"
        fill="#281e3f"></path>
    <path
        d="M0 392L39 367L78 460L117 409L157 282L196 375L235 367L274 375L313 324L352 401L391 316L430 350L470 358L509 392L548 409L587 299L626 341L665 392L704 384L743 350L783 426L822 333L861 350L900 443L900 407L861 331L822 288L783 390L743 305L704 356L665 356L626 322L587 271L548 373L509 373L470 314L430 314L391 288L352 382L313 297L274 348L235 322L196 348L157 254L117 382L78 424L39 339L0 356Z"
        fill="#291f41"></path>
    <path
        d="M0 460L39 460L78 596L117 503L157 418L196 435L235 477L274 443L313 418L352 520L391 392L430 418L470 503L509 520L548 528L587 375L626 435L665 460L704 485L743 477L783 562L822 452L861 460L900 562L900 441L861 348L822 331L783 424L743 348L704 382L665 390L626 339L587 297L548 407L509 390L470 356L430 348L391 314L352 399L313 322L274 373L235 365L196 373L157 280L117 407L78 458L39 365L0 390Z"
        fill="#291f41"></path>
    <path
        d="M0 503L39 503L78 630L117 545L157 477L196 485L235 503L274 485L313 477L352 571L391 452L430 443L470 545L509 562L548 554L587 435L626 477L665 494L704 537L743 537L783 596L822 494L861 520L900 588L900 560L861 458L822 450L783 560L743 475L704 483L665 458L626 433L587 373L548 526L509 518L470 501L430 416L391 390L352 518L313 416L274 441L235 475L196 433L157 416L117 501L78 594L39 458L0 458Z"
        fill="#281e3f"></path>
    <path
        d="M0 724L39 690L78 749L117 715L157 673L196 698L235 698L274 698L313 698L352 724L391 673L430 698L470 698L509 681L548 681L587 715L626 673L665 664L704 690L743 707L783 707L822 690L861 656L900 715L900 586L861 518L822 492L783 594L743 535L704 535L665 492L626 475L587 433L548 552L509 560L470 543L430 441L391 450L352 569L313 475L274 483L235 501L196 483L157 475L117 543L78 628L39 501L0 501Z"
        fill="#241b39"></path>
    <path
        d="M0 783L39 766L78 783L117 749L157 741L196 766L235 766L274 758L313 766L352 775L391 715L430 775L470 732L509 741L548 741L587 766L626 741L665 724L704 724L743 766L783 749L822 732L861 732L900 775L900 713L861 654L822 688L783 705L743 705L704 688L665 662L626 671L587 713L548 679L509 679L470 696L430 696L391 671L352 722L313 696L274 696L235 696L196 696L157 671L117 713L78 747L39 688L0 722Z"
        fill="#201933"></path>
    <path
        d="M0 800L39 792L78 809L117 766L157 758L196 800L235 792L274 800L313 800L352 800L391 741L430 792L470 775L509 766L548 775L587 800L626 758L665 758L704 766L743 783L783 783L822 749L861 775L900 800L900 773L861 730L822 730L783 747L743 764L704 722L665 722L626 739L587 764L548 739L509 739L470 730L430 773L391 713L352 773L313 764L274 756L235 764L196 764L157 739L117 747L78 781L39 764L0 781Z"
        fill="#1d162d"></path>
    <path
        d="M0 851L39 851L78 851L117 851L157 851L196 851L235 851L274 851L313 851L352 851L391 851L430 851L470 851L509 851L548 851L587 851L626 851L665 851L704 851L743 851L783 851L822 851L861 851L900 851L900 798L861 773L822 747L783 781L743 781L704 764L665 756L626 756L587 798L548 773L509 764L470 773L430 790L391 739L352 798L313 798L274 798L235 790L196 798L157 756L117 764L78 807L39 790L0 798Z"
        fill="#1a1428"></path>
</svg>