<svg id="visual" viewBox="0 0 900 650" width="900" height="650" xmlns="http://www.w3.org/2000/svg"
    xmlns:xlink="http://www.w3.org/1999/xlink" version="1.1">
    <path
        d="M0 21L82 21L82 27L164 27L164 34L245 34L245 27L327 27L327 21L409 21L409 34L491 34L491 27L573 27L573 27L655 27L655 27L736 27L736 34L818 34L818 27L900 27L900 27L900 0L900 0L818 0L818 0L736 0L736 0L655 0L655 0L573 0L573 0L491 0L491 0L409 0L409 0L327 0L327 0L245 0L245 0L164 0L164 0L82 0L82 0L0 0Z"
        fill="#151123"></path>
    <path
        d="M0 40L82 40L82 40L164 40L164 60L245 60L245 53L327 53L327 53L409 53L409 66L491 66L491 66L573 66L573 47L655 47L655 47L736 47L736 60L818 60L818 40L900 40L900 66L900 25L900 25L818 25L818 32L736 32L736 25L655 25L655 25L573 25L573 25L491 25L491 32L409 32L409 19L327 19L327 25L245 25L245 32L164 32L164 25L82 25L82 19L0 19Z"
        fill="#171427"></path>
    <path
        d="M0 112L82 112L82 99L164 99L164 118L245 118L245 112L327 112L327 79L409 79L409 112L491 112L491 92L573 92L573 118L655 118L655 86L736 86L736 79L818 79L818 118L900 118L900 105L900 64L900 38L818 38L818 58L736 58L736 45L655 45L655 45L573 45L573 64L491 64L491 64L409 64L409 51L327 51L327 51L245 51L245 58L164 58L164 38L82 38L82 38L0 38Z"
        fill="#1a162b"></path>
    <path
        d="M0 242L82 242L82 287L164 287L164 294L245 294L245 203L327 203L327 228L409 228L409 281L491 281L491 281L573 281L573 190L655 190L655 196L736 196L736 177L818 177L818 248L900 248L900 326L900 103L900 116L818 116L818 77L736 77L736 84L655 84L655 116L573 116L573 90L491 90L491 110L409 110L409 77L327 77L327 110L245 110L245 116L164 116L164 97L82 97L82 110L0 110Z"
        fill="#1d1830"></path>
    <path
        d="M0 261L82 261L82 326L164 326L164 320L245 320L245 216L327 216L327 255L409 255L409 320L491 320L491 326L573 326L573 222L655 222L655 242L736 242L736 222L818 222L818 268L900 268L900 352L900 324L900 246L818 246L818 175L736 175L736 194L655 194L655 188L573 188L573 279L491 279L491 279L409 279L409 226L327 226L327 201L245 201L245 292L164 292L164 285L82 285L82 240L0 240Z"
        fill="#201a34"></path>
    <path
        d="M0 281L82 281L82 346L164 346L164 339L245 339L245 248L327 248L327 287L409 287L409 346L491 346L491 346L573 346L573 242L655 242L655 268L736 268L736 248L818 248L818 281L900 281L900 378L900 350L900 266L818 266L818 220L736 220L736 240L655 240L655 220L573 220L573 324L491 324L491 318L409 318L409 253L327 253L327 214L245 214L245 318L164 318L164 324L82 324L82 259L0 259Z"
        fill="#211b36"></path>
    <path
        d="M0 326L82 326L82 365L164 365L164 378L245 378L245 294L327 294L327 320L409 320L409 385L491 385L491 365L573 365L573 268L655 268L655 294L736 294L736 294L818 294L818 320L900 320L900 391L900 376L900 279L818 279L818 246L736 246L736 266L655 266L655 240L573 240L573 344L491 344L491 344L409 344L409 285L327 285L327 246L245 246L245 337L164 337L164 344L82 344L82 279L0 279Z"
        fill="#211b36"></path>
    <path
        d="M0 385L82 385L82 411L164 411L164 411L245 411L245 333L327 333L327 365L409 365L409 417L491 417L491 463L573 463L573 326L655 326L655 391L736 391L736 352L818 352L818 398L900 398L900 443L900 389L900 318L818 318L818 292L736 292L736 292L655 292L655 266L573 266L573 363L491 363L491 383L409 383L409 318L327 318L327 292L245 292L245 376L164 376L164 363L82 363L82 324L0 324Z"
        fill="#201a34"></path>
    <path
        d="M0 456L82 456L82 463L164 463L164 515L245 515L245 449L327 449L327 437L409 437L409 463L491 463L491 508L573 508L573 424L655 424L655 469L736 469L736 398L818 398L818 495L900 495L900 541L900 441L900 396L818 396L818 350L736 350L736 389L655 389L655 324L573 324L573 461L491 461L491 415L409 415L409 363L327 363L327 331L245 331L245 409L164 409L164 409L82 409L82 383L0 383Z"
        fill="#1d1830"></path>
    <path
        d="M0 573L82 573L82 534L164 534L164 586L245 586L245 580L327 580L327 593L409 593L409 567L491 567L491 593L573 593L573 560L655 560L655 599L736 599L736 547L818 547L818 586L900 586L900 612L900 539L900 493L818 493L818 396L736 396L736 467L655 467L655 422L573 422L573 506L491 506L491 461L409 461L409 435L327 435L327 447L245 447L245 513L164 513L164 461L82 461L82 454L0 454Z"
        fill="#1a162b"></path>
    <path
        d="M0 619L82 619L82 586L164 586L164 612L245 612L245 625L327 625L327 632L409 632L409 606L491 606L491 619L573 619L573 599L655 599L655 619L736 619L736 599L818 599L818 606L900 606L900 632L900 610L900 584L818 584L818 545L736 545L736 597L655 597L655 558L573 558L573 591L491 591L491 565L409 565L409 591L327 591L327 578L245 578L245 584L164 584L164 532L82 532L82 571L0 571Z"
        fill="#171427"></path>
    <path
        d="M0 651L82 651L82 651L164 651L164 651L245 651L245 651L327 651L327 651L409 651L409 651L491 651L491 651L573 651L573 651L655 651L655 651L736 651L736 651L818 651L818 651L900 651L900 651L900 630L900 604L818 604L818 597L736 597L736 617L655 617L655 597L573 597L573 617L491 617L491 604L409 604L409 630L327 630L327 623L245 623L245 610L164 610L164 584L82 584L82 617L0 617Z"
        fill="#151123"></path>
</svg>